<svg xmlns="http://www.w3.org/2000/svg" viewBox="0 0 236 236"><defs><style>.cls-1{fill:#66669a;}.cls-2{fill:#c8daea;}.cls-3{fill:#a9c6d8;}.cls-4,.cls-6{fill:#fff;}.cls-5{fill:#599bff;}.cls-6{font-size:25px;font-family:Lato-Bold, Lato;font-weight:700;}.cls-7{letter-spacing:-0.04em;}.cls-8{letter-spacing:0em;}</style></defs><title>Logo_v5</title><g id="Layer_9" data-name="Layer 9"><circle class="cls-1" cx="118" cy="118" r="118"/></g><g id="Aeroplanino_-_Originale_Telegram" data-name="Aeroplanino - Originale Telegram"><g id="Слой_6" data-name="Слой 6"><path class="cls-2" d="M95.78,142.53l14,38.75s1.75,3.62,3.62,3.62,29.75-29,29.75-29l31-59.87-77.87,36.5Z" transform="translate(-15.49 -14.95)"/></g><g id="Слой_7" data-name="Слой 7"><path class="cls-3" d="M114.34,152.47,111.65,181s-1.12,8.75,7.63,0,17.12-15.5,17.12-15.5" transform="translate(-15.49 -14.95)"/></g><g id="Слой_5" data-name="Слой 5"><path class="cls-4" d="M96,143.91l-28.79-9.38s-3.44-1.4-2.34-4.56c.23-.66.69-1.21,2.07-2.17,6.38-4.45,118.1-44.61,118.1-44.61s3.15-1.06,5-.35a2.72,2.72,0,0,1,1.85,2,9.19,9.19,0,0,1,.25,2.54c0,.74-.1,1.43-.16,2.5-.69,11-21,92.92-21,92.92s-1.22,4.79-5.59,5a8,8,0,0,1-5.83-2.25c-8.57-7.37-38.17-27.27-44.71-31.64a1.25,1.25,0,0,1-.54-.88c-.09-.46.41-1,.41-1s51.55-45.82,52.92-50.63c.11-.37-.29-.56-.83-.4-3.43,1.26-62.78,38.75-69.33,42.88A3.07,3.07,0,0,1,96,143.91Z" transform="translate(-15.49 -14.95)"/></g></g><g id="Circuiti"><g id="Circuiti-2" data-name="Circuiti"><g id="sinistra"><path class="cls-5" d="M89.22,106.87v5.07H62.15L50.83,123.68H16.34c.16-1.68.31-3.14.51-4.84h32l11.32-12Z" transform="translate(-15.49 -14.95)"/><polygon class="cls-5" points="1.08 131.52 38.66 131.52 49.99 143.49 75.06 143.49 76.84 143.49 76.84 148.33 74.62 148.33 47.98 148.33 36.44 136.58 1.72 136.58 1.08 131.52"/><path class="cls-5" d="M69.47,132.66v5.07H16c0-.95-.05-1.78-.05-2.7v-2.37Z" transform="translate(-15.49 -14.95)"/><path class="cls-5" d="M73.91,89.61,59.26,104.8H19.52c.38-1.48.82-3.06,1.32-4.83H57.27L69,87.76l1.56-1.6Z" transform="translate(-15.49 -14.95)"/><path class="cls-5" d="M70.36,180.78,67,184.22l-1.78-1.85-11.54-12h-32c-.51-1.58-1.07-3.42-1.53-5.06H55.72l13.09,13.58Z" transform="translate(-15.49 -14.95)"/><path class="cls-5" d="M98.77,152.45a8.45,8.45,0,0,0-8.22,6,7.35,7.35,0,0,0-.66,3,5.36,5.36,0,0,0,.22,1.85,8.83,8.83,0,0,0,17.53-1.85A8.87,8.87,0,0,0,98.77,152.45Zm0,14.05a5.07,5.07,0,1,1,0-10.14,5.07,5.07,0,0,1,0,10.14Z" transform="translate(-15.49 -14.95)"/><path class="cls-5" d="M76.58,126a8.68,8.68,0,0,0-8.45,6.68,7.69,7.69,0,0,0,0,5.07,8.67,8.67,0,0,0,8.45,6.67,9.22,9.22,0,0,0,0-18.42Zm0,14.28a5.22,5.22,0,0,1-5.11-5.07,5.43,5.43,0,0,1,5.11-5.3c2.65,0,4.87,2.54,4.87,5.3A5,5,0,0,1,76.58,140.26Z" transform="translate(-15.49 -14.95)"/><path class="cls-5" d="M42.61,183.54v4.37H29c-.75-1.47-1.49-3-2.14-4.37Z" transform="translate(-15.49 -14.95)"/><path class="cls-5" d="M48,179.39a5.83,5.83,0,0,0-5.78,4.15c-.22.23-.22.23-.22.45,0,.7-.22,1.15-.22,1.85S42,187,42,187.46c0,.22,0,.22.22.45A6,6,0,0,0,48,192.29a6.33,6.33,0,0,0,6.21-6.45A6.19,6.19,0,0,0,48,179.39Zm0,9.91a3.53,3.53,0,0,1-3.56-3.46,3.55,3.55,0,1,1,7.1,0A3.52,3.52,0,0,1,48,189.3Z" transform="translate(-15.49 -14.95)"/><path class="cls-5" d="M25.94,86.21H42.71V82L28.05,81.7A38.57,38.57,0,0,0,25.94,86.21Z" transform="translate(-15.49 -14.95)"/><path class="cls-5" d="M48,77.64A6,6,0,0,0,42.17,82a.81.81,0,0,0-.22.46,3.57,3.57,0,0,0-.22,1.62,3.53,3.53,0,0,0,.22,1.6.82.82,0,0,0,.22.47A6.25,6.25,0,0,0,48,90.53a6.19,6.19,0,0,0,6.21-6.44A6.33,6.33,0,0,0,48,77.64Zm0,10.12a3.68,3.68,0,1,1,3.54-3.67A3.56,3.56,0,0,1,48,87.76Z" transform="translate(-15.49 -14.95)"/><path class="cls-5" d="M95.21,99.73a8.57,8.57,0,0,0-8.66,7.14c0,.7-.21,1.38-.21,2.08a13.42,13.42,0,0,0,.44,3,9,9,0,0,0,8.43,6,8.82,8.82,0,0,0,8.66-9C103.87,103.88,100.1,99.73,95.21,99.73Zm0,14.28a5.21,5.21,0,0,1-5.1-5.06,5,5,0,1,1,10,0A5.18,5.18,0,0,1,95.21,114Z" transform="translate(-15.49 -14.95)"/><path class="cls-5" d="M76.35,73.72c-4.88,0-8.65,4.15-8.65,9.21A8.68,8.68,0,0,0,69,87.76,9.53,9.53,0,0,0,72.58,91a7,7,0,0,0,3.77.92,8.87,8.87,0,0,0,8.87-9A9.07,9.07,0,0,0,76.35,73.72Zm0,14.28a5,5,0,0,1-4.88-5.07A5,5,0,1,1,76.35,88Z" transform="translate(-15.49 -14.95)"/><path class="cls-5" d="M72.8,177.79a8,8,0,0,0-4,1.14,8.73,8.73,0,0,0-3.56,3.44A11.17,11.17,0,0,0,63.92,187a8.89,8.89,0,1,0,8.88-9.19Zm0,14.25A5,5,0,0,1,67.92,187a4.87,4.87,0,0,1,4.88-5.06A5.06,5.06,0,0,1,77.91,187,5.21,5.21,0,0,1,72.8,192Z" transform="translate(-15.49 -14.95)"/></g><g id="destra"><path class="cls-5" d="M178,106.64v5.07h27.07l11.33,11.73h34.48c-.15-1.67-.31-3.14-.5-4.83h-32l-11.31-12Z" transform="translate(-15.49 -14.95)"/><polygon class="cls-5" points="235.14 131.29 197.56 131.29 186.23 143.26 161.16 143.26 159.38 143.26 159.38 148.09 161.6 148.09 188.24 148.09 199.78 136.34 234.5 136.34 235.14 131.29"/><path class="cls-5" d="M197.74,132.42v5.07h53.5c0-.94.06-1.77.06-2.69v-2.38Z" transform="translate(-15.49 -14.95)"/><path class="cls-5" d="M193.3,89.37,208,104.57h39.74c-.39-1.48-.82-3.07-1.33-4.83H209.94L198.18,87.53l-1.56-1.61Z" transform="translate(-15.49 -14.95)"/><path class="cls-5" d="M196.85,180.54l3.33,3.44,1.77-1.84,11.54-12h32c.51-1.59,1.06-3.43,1.53-5.07H211.49L198.4,178.7Z" transform="translate(-15.49 -14.95)"/><path class="cls-5" d="M159.56,161.2A8.84,8.84,0,0,0,177.1,163a5.52,5.52,0,0,0,.21-1.84,7.19,7.19,0,0,0-.66-3,8.41,8.41,0,0,0-8.21-6A8.88,8.88,0,0,0,159.56,161.2Zm4,0a5,5,0,0,1,4.88-5.07,5.07,5.07,0,1,1,0,10.14A5,5,0,0,1,163.56,161.2Z" transform="translate(-15.49 -14.95)"/><path class="cls-5" d="M181.76,135a9.08,9.08,0,0,0,8.87,9.22,8.67,8.67,0,0,0,8.44-6.68,7.69,7.69,0,0,0,0-5.07,8.66,8.66,0,0,0-8.44-6.67A9.07,9.07,0,0,0,181.76,135Zm4,0a5.23,5.23,0,0,1,4.88-5.29,5.42,5.42,0,0,1,5.1,5.29,5.2,5.2,0,0,1-5.1,5.07A5,5,0,0,1,185.75,135Z" transform="translate(-15.49 -14.95)"/><path class="cls-5" d="M224.59,183.31v4.36h13.66c.74-1.47,1.48-3,2.13-4.36Z" transform="translate(-15.49 -14.95)"/><path class="cls-5" d="M213.05,185.6a6.33,6.33,0,0,0,6.21,6.45,6,6,0,0,0,5.77-4.38c.22-.22.22-.22.22-.45,0-.47.23-.92.23-1.62s-.23-1.14-.23-1.84c0-.23,0-.23-.22-.45a5.83,5.83,0,0,0-5.77-4.16A6.19,6.19,0,0,0,213.05,185.6Zm2.67,0a3.55,3.55,0,1,1,7.09,0,3.55,3.55,0,0,1-7.09,0Z" transform="translate(-15.49 -14.95)"/><path class="cls-5" d="M241.27,86H224.49V81.75l14.66-.29A37.21,37.21,0,0,1,241.27,86Z" transform="translate(-15.49 -14.95)"/><path class="cls-5" d="M213.05,83.85a6.12,6.12,0,0,0,12,2.07.78.78,0,0,0,.22-.46,3.41,3.41,0,0,0,.23-1.61,3.47,3.47,0,0,0-.23-1.62.86.86,0,0,0-.22-.46,6,6,0,0,0-5.77-4.37A6.33,6.33,0,0,0,213.05,83.85Zm2.67,0a3.55,3.55,0,1,1,3.54,3.68A3.56,3.56,0,0,1,215.72,83.85Z" transform="translate(-15.49 -14.95)"/><path class="cls-5" d="M163.33,108.72a8.83,8.83,0,0,0,8.66,9,9,9,0,0,0,8.43-6,13.53,13.53,0,0,0,.45-3c0-.7-.22-1.39-.22-2.08A8.56,8.56,0,0,0,172,99.5C167.1,99.5,163.33,103.65,163.33,108.72Zm3.77,0a5,5,0,1,1,10,0,5,5,0,1,1-10,0Z" transform="translate(-15.49 -14.95)"/><path class="cls-5" d="M182,82.7a8.88,8.88,0,0,0,8.88,9,7,7,0,0,0,3.77-.93,9.55,9.55,0,0,0,3.55-3.22,8.68,8.68,0,0,0,1.32-4.83c0-5.06-3.77-9.21-8.64-9.21A9.08,9.08,0,0,0,182,82.7Zm3.77,0a5,5,0,1,1,10,0,5,5,0,0,1-4.87,5.06A5.06,5.06,0,0,1,185.75,82.7Z" transform="translate(-15.49 -14.95)"/><path class="cls-5" d="M185.53,186.75a8.89,8.89,0,1,0,17.76,0,11.14,11.14,0,0,0-1.34-4.61,8.59,8.59,0,0,0-3.55-3.44,8,8,0,0,0-4-1.15A9.07,9.07,0,0,0,185.53,186.75Zm3.77,0a5.06,5.06,0,0,1,5.1-5.06,4.88,4.88,0,0,1,4.89,5.06,5,5,0,0,1-4.89,5.06A5.21,5.21,0,0,1,189.3,186.75Z" transform="translate(-15.49 -14.95)"/></g></g></g><g id="text"><path class="cls-4" d="M123,51.88a3.79,3.79,0,0,1,2.81.78,3.06,3.06,0,0,1,.33,2.67,4.41,4.41,0,0,1-1.47,2.81,5.37,5.37,0,0,1-3.33.85h-2.25l1.38-7.11Zm-9,14.3h3.7l.88-4.52h3.16a11.13,11.13,0,0,0,3.45-.44,6.51,6.51,0,0,0,2.46-1.47,7.71,7.71,0,0,0,1.51-1.89,7.56,7.56,0,0,0,.81-2.27,5.29,5.29,0,0,0-.88-4.7q-1.47-1.68-4.68-1.68h-7.11Z" transform="translate(-15.49 -14.95)"/><path class="cls-4" d="M132.71,44.7h3.67l-.88,4.51h3.27c2,0,3.47.36,4.25,1.07s1,1.88.7,3.49l-1.53,7.89h-3.73l1.46-7.5c.17-.86.11-1.44-.18-1.75a2.58,2.58,0,0,0-1.84-.47H135l-1.89,9.72h-3.67Z" transform="translate(-15.49 -14.95)"/><path class="cls-4" d="M151.88,51.88a3.77,3.77,0,0,1,2.81.78,3.06,3.06,0,0,1,.33,2.67,4.41,4.41,0,0,1-1.47,2.81,5.37,5.37,0,0,1-3.33.85H148l1.38-7.11Zm-9,14.3h3.7l.88-4.52h3.16a11.13,11.13,0,0,0,3.45-.44,6.51,6.51,0,0,0,2.46-1.47A7.71,7.71,0,0,0,158,57.86a7.56,7.56,0,0,0,.81-2.27,5.29,5.29,0,0,0-.88-4.7q-1.47-1.68-4.68-1.68h-7.11Z" transform="translate(-15.49 -14.95)"/><text class="cls-6" transform="translate(51.87 206.03) scale(0.7)">TELEGRAM</text><text class="cls-6" transform="translate(144.18 206.03)"> </text><text class="cls-6" transform="translate(149.01 206.03) scale(0.7)">B<tspan class="cls-7" x="16.29" y="0">O</tspan><tspan class="cls-8" x="35.3" y="0">T</tspan></text></g></svg>